<?xml version="1.0" encoding="iso-8859-1"?>
<!-- Uploaded to: SVG Repo, www.svgrepo.com, Generator: SVG Repo Mixer Tools -->
<!DOCTYPE svg PUBLIC "-//W3C//DTD SVG 1.1//EN" "http://www.w3.org/Graphics/SVG/1.1/DTD/svg11.dtd">
<svg fill="#000000" height="800px" width="800px" version="1.1" id="Capa_1" xmlns="http://www.w3.org/2000/svg" xmlns:xlink="http://www.w3.org/1999/xlink" 
	 viewBox="0 0 474.98 474.98" xml:space="preserve">
<g>
	<path d="M433.932,188.804c0.184-1.686,0.631-3.303,0.631-5.029c0-32.117-32.656-58.154-72.951-58.154
		c-9.951,0-19.423,1.607-28.064,4.488c0.093-1.51,0.461-2.949,0.461-4.488c0-37.625-31.562-68.123-70.484-68.123
		c-31.193,0-57.349,19.709-66.637,46.85c-10.967-10.898-26.078-17.637-42.79-17.637c-33.487,0-60.628,27.049-60.628,60.42
		c0,7.209,1.479,14.018,3.804,20.426c-4.082-0.855-8.303-1.418-12.677-1.418c-30.483,0-55.206,21.85-55.206,48.799
		c0,26.949,24.723,48.797,55.206,48.797c4.93,0,9.628-0.754,14.187-1.832c-3.374,6.4-5.314,13.363-5.314,20.693
		c0,30.568,32.224,55.338,71.965,55.338c22.92,0,43.113-8.395,56.284-21.242c11.583,8.033,28.542,13.232,47.72,13.232
		c32.594,0,59.086-14.756,62.43-33.611c8.672,3.645,18.793,5.846,29.744,5.846c31.178,0,56.438-17.074,56.654-38.17
		c0,0,0.016,0,0.031,0c31.299,0,56.684-17.205,56.684-38.422C474.98,208.05,457.574,193.433,433.932,188.804z M211.136,180.679
		l-14.942,57.887c-0.986,3.787-4.389,6.438-8.303,6.438h-4.528c-4.097,0-7.625-2.904-8.41-6.924l-4.944-25.113
		c-1.434-7.51-2.648-14.473-3.527-22.977h-0.23c-1.324,8.395-2.526,15.467-4.299,22.977l-5.591,25.307
		c-0.863,3.928-4.344,6.73-8.364,6.73h-4.791c-3.973,0-7.424-2.732-8.348-6.6l-13.586-57.301c-0.617-2.551-0.016-5.246,1.617-7.301
		c1.617-2.057,4.098-3.258,6.731-3.258c4.144,0,7.686,2.957,8.44,7.031l4.33,23.684c1.662,8.832,3.203,18.445,4.419,25.961h0.231
		c1.202-8.065,2.975-17.012,4.852-26.186l4.884-23.645c0.831-3.988,4.345-6.846,8.411-6.846h3.804c4.112,0,7.655,2.926,8.427,6.977
		l4.636,24.4c1.663,8.725,2.88,16.682,3.974,24.969h0.23c1.094-8.287,2.758-17.014,4.299-25.855l4.79-23.967
		c0.754-3.797,4.082-6.523,7.948-6.523c2.496,0,4.867,1.162,6.406,3.141C211.227,175.665,211.768,178.245,211.136,180.679z
		 M239.338,236.548c0,4.666-3.789,8.455-8.455,8.455c-4.668,0-8.457-3.789-8.457-8.455v-57.549c0-4.668,3.789-8.455,8.457-8.455
		c4.666,0,8.455,3.787,8.455,8.455V236.548z M272.132,246.104c-5.421,0-10.813-0.893-15.079-2.148
		c-3.451-1.01-5.484-4.553-4.637-8.033l0.231-0.924c0.431-1.756,1.571-3.258,3.142-4.145c1.588-0.885,3.465-1.084,5.191-0.537
		c3.651,1.154,7.857,1.977,12.137,1.977c7.734,0,11.83-3.203,11.83-8.063c0-4.635-3.543-7.285-12.49-10.488
		c-12.369-4.314-20.44-11.16-20.44-21.99c0-12.699,10.612-22.42,28.172-22.42c4.96,0,9.15,0.617,12.661,1.533
		c1.71,0.439,3.174,1.555,4.066,3.088c0.879,1.533,1.11,3.359,0.633,5.061l-0.123,0.447c-1.002,3.643-4.745,5.799-8.397,4.846
		c-2.57-0.672-5.637-1.164-9.164-1.164c-7.301,0-10.828,3.311-10.828,7.178c0,4.752,4.189,6.848,13.801,10.49
		c13.154,4.865,19.33,11.713,19.33,22.211C302.168,235.501,292.572,246.104,272.132,246.104z M374.951,236.671
		c0,4.605-3.729,8.332-8.334,8.332h-0.123c-4.605,0-8.332-3.727-8.332-8.332v-22.82h-27.729v22.82c0,4.605-3.727,8.332-8.332,8.332
		h-0.246c-4.605,0-8.333-3.727-8.333-8.332v-57.672c0-4.668,3.788-8.455,8.456-8.455c4.667,0,8.455,3.787,8.455,8.455v20.156h27.729
		v-20.156c0-4.668,3.788-8.455,8.455-8.455c4.605,0,8.334,3.727,8.334,8.332V236.671z"/>
	<path d="M43.992,295.774c-16.219,0-29.39,13.16-29.39,29.396c0,16.234,13.171,29.397,29.39,29.397
		c16.235,0,29.404-13.162,29.404-29.397C73.396,308.935,60.228,295.774,43.992,295.774z"/>
	<path d="M21.41,374.64C9.597,374.64,0,384.228,0,396.065c0,11.83,9.597,21.418,21.41,21.418c11.83,0,21.442-9.588,21.442-21.418
		C42.853,384.228,33.24,374.64,21.41,374.64z"/>
</g>
</svg>